%TF.GenerationSoftware,KiCad,Pcbnew,10.0.6*%
%TF.CreationDate,2026-10-06T19:28:23-04:00*%
%TF.ProjectId,starbie,73746172-6269-4652-9e6b-696361645f70,rev?*%
%TF.SameCoordinates,Original*%
%TF.FileFunction,Soldermask,Top*%
%TF.FilePolarity,Negative*%
%FSLAX46Y46*%
G04 Gerber Fmt 4.6, Leading zero omitted, Abs format (unit mm)*
G04 Created by KiCad (PCBNEW 10.0.6) date 2026-10-06 19:28:23*
%MOMM*%
%LPD*%
G01*
G04 APERTURE LIST*
G04 Aperture macros list*
%AMRoundRect*
0 Rectangle with rounded corners*
0 $1 Rounding radius*
0 $2 $3 $4 $5 $6 $7 $8 $9 X,Y pos of 4 corners*
0 Add a 4 corners polygon primitive as box body*
4,1,4,$2,$3,$4,$5,$6,$7,$8,$9,$2,$3,0*
0 Add four circle primitives for the rounded corners*
1,1,$1+$1,$2,$3*
1,1,$1+$1,$4,$5*
1,1,$1+$1,$6,$7*
1,1,$1+$1,$8,$9*
0 Add four rect primitives between the rounded corners*
20,1,$1+$1,$2,$3,$4,$5,0*
20,1,$1+$1,$4,$5,$6,$7,0*
20,1,$1+$1,$6,$7,$8,$9,0*
20,1,$1+$1,$8,$9,$2,$3,0*%
G04 Aperture macros list end*
%ADD10R,1.500000X1.500000*%
%ADD11C,1.500000*%
%ADD12O,3.800000X2.900000*%
%ADD13R,1.700000X1.700000*%
%ADD14O,1.700000X1.700000*%
%ADD15C,1.700000*%
%ADD16C,4.000000*%
%ADD17C,2.200000*%
%ADD18C,1.400000*%
%ADD19RoundRect,0.152400X1.063600X0.609600X-1.063600X0.609600X-1.063600X-0.609600X1.063600X-0.609600X0*%
%ADD20C,1.524000*%
%ADD21RoundRect,0.152400X-1.063600X-0.609600X1.063600X-0.609600X1.063600X0.609600X-1.063600X0.609600X0*%
G04 APERTURE END LIST*
D10*
%TO.C,U2*%
X229080000Y-55500000D03*
D11*
X226540000Y-55500000D03*
X224000000Y-55500000D03*
X221460000Y-55500000D03*
%TD*%
D12*
%TO.C,J1*%
X232852000Y-84114000D03*
X232852000Y-61000000D03*
X210500000Y-84114000D03*
X210500000Y-61000000D03*
D13*
X225486000Y-84749000D03*
D14*
X222946000Y-84749000D03*
X220406000Y-84749000D03*
X217866000Y-84749000D03*
%TD*%
D15*
%TO.C,SW1*%
X193380000Y-74540000D03*
D16*
X198460000Y-74540000D03*
D15*
X203540000Y-74540000D03*
D17*
X201000000Y-69460000D03*
X194650000Y-72000000D03*
%TD*%
D18*
%TO.C,R1*%
X221500000Y-50500000D03*
X229120000Y-50500000D03*
%TD*%
D15*
%TO.C,SW2*%
X206230000Y-100040000D03*
D16*
X211310000Y-100040000D03*
D15*
X216390000Y-100040000D03*
D17*
X213850000Y-94960000D03*
X207500000Y-97500000D03*
%TD*%
D19*
%TO.C,U1*%
X237165000Y-69000000D03*
D20*
X238000000Y-69000000D03*
D19*
X237165000Y-71540000D03*
D20*
X238000000Y-71540000D03*
D19*
X237165000Y-74080000D03*
D20*
X238000000Y-74080000D03*
D19*
X237165000Y-76620000D03*
D20*
X238000000Y-76620000D03*
D19*
X237165000Y-79160000D03*
D20*
X238000000Y-79160000D03*
D19*
X237165000Y-81700000D03*
D20*
X238000000Y-81700000D03*
D19*
X237165000Y-84240000D03*
D20*
X238000000Y-84240000D03*
X253240000Y-84240000D03*
D21*
X254075000Y-84240000D03*
D20*
X253240000Y-81700000D03*
D21*
X254075000Y-81700000D03*
D20*
X253240000Y-79160000D03*
D21*
X254075000Y-79160000D03*
D20*
X253240000Y-76620000D03*
D21*
X254075000Y-76620000D03*
D20*
X253240000Y-74080000D03*
D21*
X254075000Y-74080000D03*
D20*
X253240000Y-71540000D03*
D21*
X254075000Y-71540000D03*
D20*
X253240000Y-69000000D03*
D21*
X254075000Y-69000000D03*
%TD*%
D13*
%TO.C,J2*%
X236500000Y-90500000D03*
D15*
X236500000Y-93040000D03*
X236500000Y-95580000D03*
X236500000Y-98120000D03*
X236500000Y-100660000D03*
X236500000Y-103200000D03*
X236500000Y-105740000D03*
X236500000Y-108280000D03*
%TD*%
M02*
